# xmcd
#
# Track frame offsets: 
#        150
#        19414
#        36253
#        57393
#        71952
#        93719
#        106501
#        123708
#        141558
#        158125
#        183757
#
# Disc length: 2698 seconds
#
# Revision: 3
# Processed by: cddbd v1.5.2PL0 Copyright (c) Steve Scherf et al.
# Submitted via: ExactAudioCopy v0.95b4
#
DISCID=a20a880b
DTITLE=Percy Sledge - Blue Night
DYEAR=1994
DGENRE=R&B
TTITLE0=You Got Away With Love
TTITLE1=Love Come Knockin'
TTITLE2=Why Did You Stop
TTITLE3=I Wish It Would Rain
TTITLE4=Blue Night
TTITLE5=These Ain't Raindrops
TTITLE6=Your Love Will Save The World
TTITLE7=First You Cry
TTITLE8=Goin' Home
TTITLE9=The Grand Boulevard
TTITLE10=I've Got Dreams to Remember
EXTD=YEAR: 1994
EXTT0=
EXTT1=
EXTT2=
EXTT3=
EXTT4=
EXTT5=
EXTT6=
EXTT7=
EXTT8=
EXTT9=
EXTT10=
PLAYORDER=
